<svg width="201" height="40" viewBox="0 0 201 40" fill="none" xmlns="http://www.w3.org/2000/svg">
<path d="M30.0063 17.5548C28.8749 18.7128 28.3095 20.3233 28.4639 21.9484L28.4374 21.9214C28.5961 23.8337 27.918 25.72 26.5839 27.077C25.2499 28.4341 23.3957 29.1239 21.5158 28.9625L21.5423 28.9895C19.2662 28.7739 17.1016 30.0334 16.1302 32.1384C15.1589 34.2435 15.5893 36.7421 17.2065 38.3857C18.8236 40.0293 21.2802 40.4649 23.3487 39.4749C25.4171 38.4848 26.6532 36.2817 26.4393 33.9665L26.4674 33.9935C26.3087 32.0812 26.9868 30.1949 28.3208 28.8379C29.6548 27.4808 31.5091 26.791 33.389 26.9524L33.3609 26.9254C35.8625 27.1543 38.1902 25.6027 38.9825 23.1781C39.7748 20.7536 38.8237 18.0931 36.6853 16.7529C34.547 15.4126 31.7833 15.7447 30.0107 17.5548H30.0063Z" fill="#5454D4"/>
<path d="M19.1283 25.4524L19.1003 25.4254C20.6988 25.5893 22.2851 25.0143 23.4216 23.859C24.5581 22.7038 25.1245 21.0906 24.9646 19.4643L24.9927 19.4913C24.834 17.579 25.5121 15.6927 26.8461 14.3357C28.1801 12.9786 30.0344 12.2888 31.9143 12.4503L31.8862 12.4233C34.1626 12.6407 36.3285 11.3826 37.3013 9.27789C38.2742 7.17313 37.845 4.6738 36.2283 3.02921C34.6116 1.38461 32.1547 0.948018 30.0856 1.93765C28.0166 2.92729 26.7799 5.13058 26.9936 7.4462L26.9671 7.4177C27.1263 9.33019 26.4484 11.2168 25.1142 12.5739C23.7801 13.9311 21.9255 14.6208 20.0455 14.4588L20.072 14.4873C18.4735 14.3234 16.8872 14.8984 15.7507 16.0537C14.6143 17.2089 14.0478 18.8221 14.2077 20.4484L14.1812 20.4214C14.3393 22.3336 13.661 24.2195 12.3272 25.5764C10.9933 26.9334 9.13932 27.6233 7.25955 27.4624L7.28609 27.4894C5.00977 27.272 2.84386 28.5301 1.87102 30.6348C0.898179 32.7396 1.32737 35.2389 2.94405 36.8835C4.56074 38.5281 7.01766 38.9647 9.0867 37.975C11.1557 36.9854 12.3925 34.7821 12.1787 32.4665L12.2067 32.4935C12.048 30.5811 12.7261 28.6949 14.0601 27.3378C15.3942 25.9808 17.2484 25.291 19.1283 25.4524Z" fill="#FF7143"/>
<path d="M9.24591 22.4419C10.3775 21.2841 10.9425 19.6733 10.7868 18.0483L10.8149 18.0753C10.656 16.1624 11.3345 14.2756 12.6692 12.9184C14.0039 11.5613 15.859 10.8719 17.7394 11.0342L17.7114 11.0072C19.9869 11.2241 22.1518 9.96613 23.124 7.86205C24.0963 5.75796 23.6671 3.25961 22.051 1.61563C20.4349 -0.0283556 17.979 -0.464926 15.9106 0.524107C13.8422 1.51314 12.6056 3.71537 12.8188 6.03018L12.7922 6.00318C12.9509 7.91553 12.2728 9.8018 10.9388 11.1588C9.60479 12.5159 7.75054 13.2057 5.87064 13.0443L5.89718 13.0713C3.39573 12.8431 1.06852 14.3951 0.276661 16.8196C-0.515202 19.2441 0.436284 21.9043 2.57463 23.2442C4.71297 24.5842 7.47648 24.252 9.24886 22.4419H9.24591Z" fill="#5454D4"/>
<path d="M54.9235 7.4807H59.3025V29.1605H54.9235V7.4807Z" fill="#19191B"/>
<path fill-rule="evenodd" clip-rule="evenodd" d="M66.5368 14.443C63.6467 15.6711 61.7696 18.5507 61.7821 21.7369C61.7669 23.8261 62.5782 25.8338 64.0334 27.3082C65.4886 28.7825 67.4654 29.5998 69.5191 29.576C72.6513 29.5759 75.4744 27.6549 76.6701 24.71C77.8659 21.7651 77.1982 18.3773 74.979 16.1289C72.7598 13.8804 69.4269 13.2148 66.5368 14.443ZM69.4562 18.4149C71.2988 18.3803 72.8247 19.8627 72.8756 21.7369C72.9254 22.666 72.5909 23.5739 71.9532 24.2409C71.3155 24.9079 70.4327 25.2732 69.5184 25.2484C67.6755 25.2485 66.1767 23.7378 66.1596 21.863C66.1425 19.9882 67.6136 18.4495 69.4562 18.4149Z" fill="#19191B"/>
<path fill-rule="evenodd" clip-rule="evenodd" d="M94.7103 28.4119V14.3118L90.4473 14.3088V15.8238C89.4074 14.5294 87.8258 13.8131 86.1844 13.8933C82.1803 14.0217 78.9997 17.3609 78.9997 21.4361C78.9997 25.5114 82.1803 28.8505 86.1844 28.9789C87.8258 29.0591 89.4074 28.3428 90.4473 27.0484V28.4059C90.5206 29.3016 90.1899 30.1826 89.5483 30.8005C88.9067 31.4185 88.0239 31.7063 87.1487 31.583C85.7644 31.7267 84.4379 30.9811 83.8207 29.7125L80.0841 31.91C81.546 34.3329 84.2159 35.7222 87.0028 35.51C90.8853 35.51 94.7103 33.401 94.7103 28.4119ZM88.3669 18.0066C89.6842 18.611 90.508 19.9695 90.4478 21.4384C90.475 22.3868 90.1068 23.3028 89.4341 23.96C88.7614 24.6172 87.8469 24.9545 86.9165 24.8884C85.4714 24.8902 84.1705 23.9979 83.6302 22.6344C83.0899 21.2708 83.4189 19.7101 84.4612 18.6918C85.5034 17.6735 87.0496 17.4022 88.3669 18.0066Z" fill="#19191B"/>
<path fill-rule="evenodd" clip-rule="evenodd" d="M101.945 14.443C99.0548 15.6711 97.1777 18.5507 97.1902 21.7369C97.1751 23.8261 97.9863 25.8338 99.4415 27.3082C100.897 28.7825 102.874 29.5998 104.927 29.576C108.059 29.5759 110.883 27.6549 112.078 24.71C113.274 21.7651 112.606 18.3773 110.387 16.1289C108.168 13.8804 104.835 13.2148 101.945 14.443ZM104.864 18.4149C106.707 18.3803 108.233 19.8627 108.284 21.7369C108.334 22.666 107.999 23.5739 107.361 24.2409C106.724 24.9079 105.841 25.2732 104.927 25.2484C103.084 25.2485 101.585 23.7378 101.568 21.863C101.551 19.9882 103.022 18.4495 104.864 18.4149Z" fill="#19191B"/>
<path fill-rule="evenodd" clip-rule="evenodd" d="M116.328 7.86268C115.346 8.27641 114.706 9.2511 114.706 10.3322C114.721 11.8024 115.889 12.9906 117.334 13.0053C118.396 13.0053 119.354 12.354 119.761 11.3552C120.168 10.3563 119.943 9.2066 119.192 8.44212C118.44 7.67764 117.31 7.44894 116.328 7.86268ZM119.529 14.3118H115.149L115.143 29.162H119.529V14.3118Z" fill="#19191B"/>
<path fill-rule="evenodd" clip-rule="evenodd" d="M136.553 27.1324C137.863 25.661 138.541 23.7191 138.439 21.7369C138.542 19.7543 137.864 17.8118 136.554 16.3399C135.244 14.8681 133.411 13.9886 131.462 13.8963C129.818 13.8051 128.222 14.4698 127.113 15.7068V14.3118H122.734V35.1005H127.113V27.7639C128.221 29.0018 129.818 29.6672 131.462 29.576C133.411 29.4832 135.243 28.6038 136.553 27.1324ZM130.528 18.2918C132.435 18.2594 134.011 19.7971 134.059 21.7369C134.125 22.7008 133.783 23.6477 133.12 24.3395C132.457 25.0313 131.535 25.4024 130.586 25.3594C128.679 25.3596 127.129 23.7954 127.112 21.8551C127.096 19.9149 128.621 18.3243 130.528 18.2918Z" fill="#19191B"/>
<path d="M151.953 24.7054C151.953 28.1209 149.035 29.576 145.883 29.576C143.276 29.8161 140.789 28.416 139.605 26.0419L143.399 23.8444C143.716 24.9496 144.748 25.6798 145.877 25.5964C146.927 25.5964 147.453 25.2694 147.453 24.6769C147.453 23.0419 140.27 23.9044 140.27 18.7668C140.27 15.5283 142.957 13.8963 145.993 13.8963C148.318 13.8214 150.498 15.0386 151.685 17.0733L147.948 19.1223C147.613 18.3271 146.844 17.8127 145.993 17.8158C145.234 17.8158 144.766 18.1158 144.766 18.6468C144.772 20.3404 151.953 19.2108 151.953 24.7054Z" fill="#19191B"/>
<path d="M167.951 14.3118V29.162H163.571V27.7654C162.547 29.0155 160.994 29.6894 159.398 29.5775C156.449 29.5775 153.942 27.4399 153.942 23.4274V14.3118H158.322V22.7749C158.248 23.4907 158.487 24.2035 158.976 24.7237C159.465 25.2438 160.155 25.5186 160.861 25.4749C162.467 25.4749 163.576 24.5254 163.576 22.4164V14.3163L167.951 14.3118Z" fill="#19191B"/>
<path d="M193.062 20.0433V29.1604H188.683V20.4288C188.683 18.9438 187.982 17.9943 186.581 17.9943C185.122 17.9943 184.303 19.0338 184.303 20.7858V29.1604H179.925V20.4288C179.925 18.9438 179.225 17.9943 177.823 17.9943C176.363 17.9943 175.546 19.0338 175.546 20.7858V29.1604H171.166V14.3103H175.546V15.6753C176.468 14.4448 177.941 13.7744 179.458 13.8948C180.982 13.8189 182.434 14.5627 183.281 15.8538C184.268 14.504 185.867 13.7642 187.515 13.8948C190.867 13.8963 193.062 16.3308 193.062 20.0433Z" fill="#19191B"/>
<path d="M196.766 14.2203C198.56 14.2203 200.015 12.7401 200.015 10.9142C200.015 9.08836 198.56 7.6082 196.766 7.6082C194.971 7.6082 193.516 9.08836 193.516 10.9142C193.516 12.7401 194.971 14.2203 196.766 14.2203Z" fill="#19191B"/>
</svg>
